<?xml version="1.0" encoding="utf-8"?>
<!-- Generator: Adobe Illustrator 23.0.3, SVG Export Plug-In . SVG Version: 6.00 Build 0)  -->
<svg version="1.1" id="all" xmlns="http://www.w3.org/2000/svg" xmlns:xlink="http://www.w3.org/1999/xlink" x="0px" y="0px"
	 viewBox="0 0 232.2 266.8" style="enable-background:new 0 0 232.2 266.8;" xml:space="preserve">
<style type="text/css">
	.st0{fill:#E59A67;}
	.st1{fill:#473A30;}
	.st2{fill:#F9F8F7;}
	.st3{fill:#A04E17;}
	.st4{fill:#217248;}
	.st5{fill:#1D5935;}
</style>
<g id="clementine">
	<path class="st0" d="M183.8,92.6c-16.4-19.6-43-24-66.8-17.4C87.8,70,57,77.4,32.6,94c-17.2,11.8-24.4,30-27,49.4
		c-1.2,3.6-2.2,7.2-3.2,11.2c-6.2,29.2-1,58.2,23.2,77.6c21.6,17.4,48.4,28.4,75.8,32.6c26.4,4,57.4,3.6,78.2-15.6
		c20.6-19,26.4-50.2,26.4-77C206.6,145.8,201.2,113.6,183.8,92.6z"/>
	<g id="eyes">
		<path class="st1" d="M85.2,141c-2-3-8-3.4-11.8-3.8c-15.6-1.2-30.2,11.4-31.6,27c-1.4,17.2,20.8,28,36.4,19.2
			c17.6-10,14.2-15,14-20.8C92,154,92.8,145.6,85.2,141z"/>
		<g>
			<path class="st2" d="M85.2,169.8c-0.6-3.6-3.8-9.6-7.2-10.8c-2-0.6-5.4-1.2-7.2,0c0,0-3.6,0-7.2,3.6c-3.6,7.2-0.8,13,5.2,16.6
				C75.4,183,86.6,177.4,85.2,169.8z"/>
			<path class="st2" d="M74,172c0,0,0.2-0.2,0.4-0.2C74.2,171.8,74,172,74,172L74,172z"/>
		</g>
		<path class="st2" d="M58,148.4c-0.6-1-1.4-1.6-2.6-2c-3.2-0.6-6.2,2.6-5.4,5.8c0.8,3,4.6,3.8,7,2.6
			C59.6,153.4,59.6,150.4,58,148.4z"/>
		<path class="st1" d="M164.4,137.4c-2-3-8-3.4-11.8-3.8c-15.6-1.2-30.2,11.4-31.6,27c-1.4,17.2,20.8,28,36.4,19.2
			c17.6-10,14.2-15,14-20.8C171.2,150.4,172,142,164.4,137.4z"/>
		<path class="st2" d="M164.4,166.2c-0.6-3.6-3.8-9.6-7.2-10.8c-2-0.6-5.4-1.2-7.2,0c0,0-3.6,0-7.2,3.6c-3.6,7.2-0.8,13,5.2,16.6
			C154.6,179.4,165.8,173.6,164.4,166.2z"/>
		<path class="st2" d="M137.2,144.8c-0.6-1-1.4-1.6-2.6-2c-3.2-0.6-6.2,2.6-5.4,5.8c0.8,3,4.6,3.8,7,2.6
			C138.8,149.8,139,146.8,137.2,144.8z"/>
	</g>
	<g id="frekkles">
	</g>
	<path class="st3" d="M182,189.6c-6.4,1.6-14,3.8-21.4,4.4c6-3.2,12.6-5.2,19.4-5.8c4.6-0.4,4.6-7.6,0-7.2
		c-12.6,1-23.6,5.6-33.2,13.8c-2,1.6-1,5.6,1.6,6c4.4,0.8,9.2,0.6,14,0c-0.6,0.4-1.4,1-2,1.4c-3,2.4,0.4,6.6,3.6,6
		c2.6-0.6,5.4-1,8-1.4c-1.8,3,1.4,7.6,4.6,5c3.2-2.4,5.8-5,8-8.4c1.4-2-0.4-5.8-3-5.4c-0.6,0-1.2,0.2-1.6,0.2
		c1.6-0.8,3.2-1.6,4.8-2.4C188.4,194.4,185.8,188.6,182,189.6z"/>
	<path class="st3" d="M24.4,193.2c6.4,1.6,14,3.8,21.4,4.4c-6-3.2-12.6-5.2-19.4-5.8c-4.6-0.4-4.6-7.6,0-7.2
		c12.6,1,23.6,5.6,33.2,13.8c2,1.6,1,5.6-1.6,6c-4.4,0.8-9.2,0.6-14,0c0.6,0.4,1.4,1,2,1.4c3,2.4-0.4,6.6-3.6,6
		c-2.6-0.6-5.4-1-8-1.4c1.8,3-1.4,7.6-4.6,5c-3.2-2.4-5.8-5-8-8.4c-1.4-2,0.4-5.8,3-5.4c0.6,0,1.2,0.2,1.6,0.2
		c-1.6-0.8-3.2-1.6-4.8-2.4C17.8,198,20.6,192.2,24.4,193.2z"/>
	<path class="st4" d="M189.2,39.4c-0.6,0.2-1,0.2-1.4,0.2c-10,2.8-20,7.4-29.6,11.8c-3.6-10.8,1-23.8-6.8-33.8c-0.4-1-1-1.6-2-2.2
		C139.8,6.2,123.8,11,115,1.6c-3-3.2-8.4-1.2-9,2.8c-0.6,0.8-1,1.8-1.2,3c-0.8,8.6-3,16.8-1.4,25.4s5.2,17.2,8.6,25
		c5,11,16.2,25.6,27,25.6c3.6,0,1.2-0.6,3.6,0c1,0.2,2.8,0.2,3.6,0c3.6,3.6,10.6,5.8,17.8,8c1.2,0.4,2.4,0.6,3.6,0.8
		c7,4.4,15.2,6.6,24.2,4.6s15.6-8,20.8-15.2c3.8-5,7.4-10.4,10.2-16c2.8-5.8,4-13,8-18.2c3.4-4.2,0.2-10-5.2-9
		c-8,1.4-15.8,0-23.8-0.2"/>
	<path class="st5" d="M142.4,54.2c-3,2-5.6,4.8-7,7.8c-3.8,8.4,2.4,20,11,21.4c8,1.2,12-9.4,14.2-16.8c1.4-4.8,2.2-12.8-2.2-15.6
		c-0.2-0.6-0.8-1-1.4-1c-0.4,0-0.8,0-1.2,0c-0.6,0-1.4-0.2-2.2,0c-0.4,0-0.6,0.2-0.8,0.2c-2.6,0.4-5.4,1.2-7.8,2.6"/>
</g>
</svg>
