<?xml version="1.0" encoding="utf-8"?>
<!-- Generator: Adobe Illustrator 23.0.3, SVG Export Plug-In . SVG Version: 6.00 Build 0)  -->
<svg version="1.1" id="Layer_1" xmlns="http://www.w3.org/2000/svg" xmlns:xlink="http://www.w3.org/1999/xlink" x="0px" y="0px"
	 viewBox="0 0 400 400" style="enable-background:new 0 0 400 400;" xml:space="preserve">
<style type="text/css">
	.st0{clip-path:url(#XMLID_3_);fill:#BB3638;}
	.st1{clip-path:url(#XMLID_3_);fill:#EFEFEF;}
	.st2{clip-path:url(#XMLID_3_);fill:#30607A;}
	.st3{fill:#E59A67;}
	.st4{fill:#473A30;}
	.st5{fill:#F9F8F7;}
	.st6{fill:#A04E17;}
	.st7{fill:#D1DBD5;}
	.st8{fill:#D82A19;}
	.st9{fill:#30607A;}
	.st10{fill:#4B88A3;}
</style>
<g id="sucre_x5F_orge">
	<g>
		<defs>
			<path id="XMLID_1_" d="M351.3,355.6c-13.9-13.3-23-26.4-32.6-43.5c-9.2-16.5-17-33.9-24.8-51.1c-18-39.5-39.9-77-58.1-116.5
				c-16.9-36.5-34.8-74.3-65.9-101c-15.5-13.3-33.5-23.8-53.6-28.5c-10.9-2.5-22.3-3.7-33.4-2.9c-11.7,0.8-23.9,2.9-33.8,9.6
				C31,34,22.1,55.3,17.3,75.9c-3.1,13.5-2.3,26.2,4.1,38.6c5.2,9.9,13.4,18.1,21.5,25.6c5.9,5.5,15.4,5.9,21.2,0
				c5.6-5.6,5.9-15.7,0-21.2c-3.1-2.9-6.1-5.8-9-8.9c-3.5-3.7-4.2-4.5-6.7-8.7c-0.5-0.9-1-1.8-1.5-2.7c-0.1-0.2-0.2-0.3-0.2-0.4
				c0-0.1,0-0.1-0.1-0.1c-0.3-0.9-0.6-1.9-0.9-2.9c-0.1-0.3-0.4-2.1-0.5-2.2c-0.3-3,0.4-6.9,1.4-10.8c2.1-8.2,4.5-15.6,7.3-21.1
				c0.9-1.7,1.8-3.4,2.8-5c0.3-0.4,1.8-2.7,1.8-2.8c1-1.3,2.1-2.5,3.3-3.6c0.5-0.4,0.9-0.9,1.4-1.3c-0.2,0.2,1.9-1.5,2.2-1.6
				c6.8-4.3,14.6-4.9,22.8-5c10.1-0.1,18,1.1,27.9,4.2c7.7,2.5,12.9,5,20.6,9.9c7.6,4.8,11.5,8,18.2,14.5c3,2.9,5.9,5.9,8.7,9.1
				c1.4,1.6,2.7,3.2,4.1,4.8c0.7,0.8,1.3,1.6,2,2.4c0.2,0.3,0.4,0.5,0.4,0.5c0.2,0.2,0.3,0.5,0.6,0.8c5.5,7.4,10.5,15.1,15.1,23.1
				c9.9,17.2,18.1,35.4,26.4,53.4c17.2,37,37.9,72.1,54.8,109.2c16.7,36.7,33.3,74.6,63.1,102.9c5.9,5.6,15.4,5.8,21.2,0
				C356.9,371.2,357.1,361.2,351.3,355.6z"/>
		</defs>
		<use xlink:href="#XMLID_1_"  style="overflow:visible;fill:#BB3638;"/>
		<clipPath id="XMLID_3_">
			<use xlink:href="#XMLID_1_"  style="overflow:visible;"/>
		</clipPath>
		<path class="st0" d="M77.7,51.6c-6.2-6.2-14.4-10.4-22-14.5c-3.4-1.9-6.8-3.8-10.1-6c-0.2-0.1-1.5-1-2-1.4c-0.4-0.4-1.1-0.9-1.2-1
			c-0.7-0.6-1.4-1.3-2.1-2c-0.3-0.3-2.4-2.7-0.9-0.8c-4.5-5.9-11.5-9.2-18.5-6.4C13.6,12.6,6,6.3-2,0.2c-6.5-4.9-16.8-1-20.5,5.4
			c-4.5,7.7-1.1,15.6,5.4,20.5c8.7,6.6,17.8,15.1,25.7,23.4c4.2,4.4,10.9,5.4,16.3,3.2c0.4,0.4,0.9,0.7,1.3,1
			c-7.4,1.1-14.4,6.6-14.1,14.9c0.3,7.5,6.6,15.8,15,15c10.7-1.1,21.5-2.1,32.2-3.2c6.7-0.7,13.8-0.5,18.9-5.6
			C84.6,68.5,83.9,57.7,77.7,51.6z"/>
		<path class="st1" d="M55,99.8c-3.5,6.9-6.8,13.8-8.7,21.3c-2,7.5-4.3,14.3-8.3,21c-3.3,5.5,5.3,10.6,8.6,5
			c3.7-6.2,6.6-12.9,8.4-19.9c2.1-8,4.9-15.1,8.6-22.4C66.5,99.2,57.9,94.1,55,99.8z"/>
		<path class="st1" d="M55.6,84.5c-16.3,7.9-30.9,18.7-43.4,31.8c-4.4,4.7,2.6,11.8,7.1,7.1c11.9-12.6,25.8-22.7,41.3-30.3
			C66.4,90.3,61.4,81.7,55.6,84.5z"/>
		<path class="st1" d="M63.5,60.7c-18.7,2.3-37,6.1-55.1,11.6c-6.1,1.9-3.5,11.5,2.7,9.6c17.1-5.2,34.6-9,52.4-11.2
			C69.8,69.9,69.9,59.9,63.5,60.7z"/>
		<path class="st1" d="M93.2,51.1c-3-16.2-9.1-31.6-17.9-45.5c-3.4-5.4-12.1-0.4-8.6,5c8,12.7,13.5,26.5,16.5,41.2
			c-0.2-0.4-0.5-0.8-0.9-1.2C74.9,43.4,65.2,40,55.5,37.3c-11.5-3.1-23.2-5.2-35.1-6.5c-6.4-0.7-6.3,9.3,0,10
			c10.3,1.1,20.6,3.1,30.6,5.7c8.7,2.3,17.7,4.8,24.2,11.2c3.4,3.3,8.2,0.3,8.5-3.3C85.5,59.9,94.4,57.2,93.2,51.1z"/>
		<path class="st1" d="M120.5,4.5c-1.4-6.3-11.1-3.6-9.6,2.7c3.6,15.9,5.4,32.1,5.2,48.4c-0.1,6.4,9.9,6.4,10,0
			C126.2,38.4,124.3,21.3,120.5,4.5z"/>
		<path class="st1" d="M161.1,19.9c-1.4-6.3-11.1-3.6-9.6,2.7c4.9,21.2-4.2,42.6-7,63.5c-0.8,6.4,9.2,6.3,10,0
			C157.4,63.8,166.3,42.5,161.1,19.9z"/>
		<path class="st1" d="M191.7,45.2c-3.4,11.5-6.8,23-10.2,34.5c-1.7,5.6-3.3,11.2-5,16.8c-1.6,5.5-2.9,11.1-6.3,15.8
			c-3.7,5.3,4.9,10.3,8.6,5c6.6-9.3,8.5-22.3,11.7-33.1c3.6-12.1,7.2-24.2,10.8-36.3C203.1,41.7,193.5,39,191.7,45.2z"/>
		<path class="st1" d="M216.5,92.4c0.1,10.4-5.5,19.9-8.5,29.7c-2.8,9-5.4,19-14.6,23.3c-5.8,2.7-0.8,11.4,5,8.6
			c10.4-4.9,15-15.7,18.2-26c3.6-11.6,10-23.2,9.9-35.6C226.4,85.9,216.4,85.9,216.5,92.4z"/>
		<path class="st1" d="M238.6,141.4c-1.7,4.3-4.6,8.2-7,12.1c-2.5,4.2-4.9,8.4-7.2,12.7c-4.5,8.5-8.5,17.2-12.2,26
			c-2.5,5.9,7.2,8.5,9.6,2.7c3.8-9.2,8.2-18.1,13-26.8c4.4-8,10.2-15.5,13.5-24C250.6,138,240.9,135.4,238.6,141.4z"/>
		<path class="st1" d="M259.9,173c-13.1,19-23.4,39.7-31.1,61.5c-2.1,6.1,7.5,8.7,9.6,2.7c7.4-21,17.5-40.8,30.1-59.1
			C272.2,172.8,263.5,167.7,259.9,173z"/>
		<path class="st1" d="M278,209.5c-10.8,24.9-22.2,49.6-34.3,73.9c-2.9,5.7,5.8,10.8,8.6,5c12.1-24.3,23.6-48.9,34.3-73.9
			C289.1,208.7,280.5,203.6,278,209.5z"/>
		<path class="st1" d="M298.8,246.9c-7.7,25.7-17.7,50.6-30.1,74.5c-3,5.7,5.7,10.8,8.6,5c12.8-24.6,23.2-50.3,31.1-76.9
			C310.3,243.4,300.6,240.8,298.8,246.9z"/>
		<path class="st1" d="M313.8,291.5c-2.8,12.6-6.9,25-12.6,36.7c-5,10.5-13.6,20.4-16.1,31.8c-1.3,6.3,8.3,9,9.6,2.7
			c1.3-6,4.7-10.9,7.9-16.1c3.2-5.4,6.1-10.9,8.7-16.6c5.3-11.5,9.3-23.5,12.1-35.8C324.8,287.9,315.2,285.3,313.8,291.5z"/>
		<path class="st1" d="M335.9,321.7L321.7,358c-4,10.3-7.8,21-16.3,28.6c-4.8,4.3,2.3,11.3,7.1,7.1c8.8-7.8,13.3-18.6,17.5-29.3
			c5.2-13.3,10.4-26.6,15.6-39.9C347.9,318.4,338.2,315.8,335.9,321.7z"/>
		<path class="st1" d="M351.9,353.5c-4.6,15.5-8.2,31.7-14.3,46.7c-2.4,6,7.2,8.5,9.6,2.7c6.1-15,9.8-31.2,14.3-46.7
			C363.3,350,353.7,347.3,351.9,353.5z"/>
		<path class="st2" d="M55.7,106.5c-2.7,6.7-5,13.6-6.9,20.6c-1.7,6.2-3.1,12.8-8.4,17c-1.5,1.2,0.6,3.3,2.1,2.1
			c4.9-3.8,6.8-9.4,8.4-15.2c2.2-8,4.6-15.9,7.7-23.6C59.3,105.6,56.4,104.8,55.7,106.5z"/>
		<path class="st2" d="M48.1,93.1c-11.7,5.6-23.4,11.6-31,22.4c-1.1,1.6,1.5,3.1,2.6,1.5c7.3-10.4,18.8-16,30-21.4
			C51.4,94.9,49.8,92.3,48.1,93.1z"/>
		<path class="st2" d="M54.8,66.6c-15.1-2-28.8,5.4-43.4,7.7c-1.9,0.3-1.1,3.2,0.8,2.9C26.5,75,40,67.7,54.8,69.6
			C56.7,69.9,56.7,66.9,54.8,66.6z"/>
		<path class="st2" d="M72.6,47.2c-7.8-2.5-15.6-4.9-23.3-7.4c-6.6-2.1-13.2-4.7-20.1-4.7c-1.9,0-1.9,3,0,3c7.3,0,14.4,3,21.2,5.2
			c7.2,2.3,14.3,4.5,21.5,6.8C73.6,50.6,74.4,47.8,72.6,47.2z"/>
		<path class="st2" d="M88.6,45.9c-0.7-6.7-3.5-12.6-5.9-18.8c-2.7-6.9-5-13.8-7-20.9c-0.5-1.9-3.4-1.1-2.9,0.8
			c1.9,6.5,4,12.9,6.4,19.2c2.5,6.5,5.8,12.7,6.4,19.7C85.7,47.8,88.7,47.8,88.6,45.9z"/>
		<path class="st2" d="M121.5,30c-0.5-7-2.6-13.8-2.5-20.9c0-1.9-3-1.9-3,0c0,7.1,2,13.9,2.5,20.9c0.5,7.3-0.1,14.7-0.7,22
			c-0.2,1.9,2.8,1.9,3,0C121.4,44.7,122,37.3,121.5,30z"/>
		<path class="st2" d="M158.5,25.2c-2.1,16.4-5.1,32.7-8.9,48.9c-0.4,1.9,2.4,2.7,2.9,0.8c3.9-16.4,6.9-33,9-49.7
			C161.8,23.2,158.8,23.3,158.5,25.2z"/>
		<path class="st2" d="M191.1,61.1c-3.3,8.8-7.7,17.8-9.3,27.1c-0.8,5-1.3,9.7-4.6,13.8c-2.3,2.8-4.9,5-6.3,8.4
			c-0.8,1.8,1.8,3.3,2.6,1.5c1.6-3.7,4.7-6.1,7-9.3c2.6-3.6,3.3-7.8,3.9-12c1.6-10,6-19.4,9.6-28.7
			C194.6,60.1,191.7,59.3,191.1,61.1z"/>
		<path class="st2" d="M219.2,104.8c-3,7.9-6,15.8-8.9,23.7c-3,8.3-6.7,15.1-14.3,20c-1.6,1-0.1,3.6,1.5,2.6
			c6.4-4.1,11-9.7,13.8-16.7c3.9-9.5,7.2-19.2,10.7-28.8C222.8,103.7,219.9,103,219.2,104.8z"/>
		<path class="st2" d="M240.4,147.9c-11,12.4-17.6,27.6-23.9,42.7c-0.7,1.8,2.2,2.6,2.9,0.8c6.2-14.6,12.5-29.3,23.2-41.4
			C243.8,148.6,241.7,146.4,240.4,147.9z"/>
		<path class="st2" d="M258.4,183.2c-4.7,5.7-8.4,11.8-11.3,18.6c-3.2,7.5-5.9,15.2-12.1,20.7c-1.4,1.3,0.7,3.4,2.1,2.1
			c5-4.5,8-10.4,10.6-16.5c3.5-8.2,7-15.9,12.8-22.8C261.7,183.8,259.6,181.7,258.4,183.2z"/>
		<path class="st2" d="M278.6,220.8c-5.1,7.2-9.4,14.8-12.8,22.9c-1.6,3.8-2.8,7.7-4.2,11.6c-1.7,5-4.4,8.5-8.2,12.1
			c-1.4,1.3,0.7,3.5,2.1,2.1c2.6-2.5,5.3-5.2,7-8.4c2-3.9,2.9-8.3,4.5-12.4c3.5-9.4,8.4-18.2,14.2-26.4
			C282.3,220.8,279.7,219.3,278.6,220.8z"/>
		<path class="st2" d="M298.9,263.7c-0.6,5.3-3.8,10-6,14.8c-1.6,3.4-3,6.9-4.2,10.4c-3,8.6-8.6,15.6-13.8,23
			c-1.1,1.6,1.5,3.1,2.6,1.5c5.3-7.7,11.1-14.8,14.1-23.7c1.7-5.1,3.9-9.9,6.3-14.7c1.8-3.7,3.6-7.2,4-11.3
			C302.1,261.8,299.1,261.8,298.9,263.7z"/>
		<path class="st2" d="M316.8,300c-8.1,14.9-12.9,31.4-22.1,45.7c-1,1.6,1.6,3.1,2.6,1.5c9.2-14.3,14-30.8,22.1-45.7
			C320.3,299.8,317.8,298.3,316.8,300z"/>
		<path class="st2" d="M335.9,330.1c-3.1,7.1-7.3,14.4-8.8,22c-1.8,9.2-6.6,17.4-10.6,25.8c-0.8,1.7,1.8,3.3,2.6,1.5
			c3.5-7.3,8.4-15.1,10.3-23c1.1-4.5,1.8-8.2,3.6-12.5c1.8-4.1,3.6-8.2,5.4-12.2C339.2,329.9,336.7,328.4,335.9,330.1z"/>
		<path class="st2" d="M355.1,361.4c-1.2,3.2-3,5.5-3.8,9c-0.8,3.5-1.3,7.1-2,10.6c-0.4,1.9,2.5,2.7,2.9,0.8c0.7-3.5,1.2-7.1,2-10.6
			c0.8-3.4,2.6-5.9,3.8-9C358.6,360.4,355.7,359.6,355.1,361.4z"/>
	</g>
</g>
<g id="clementine">
	<path class="st3" d="M283.7,156.9c-16.4-19.6-43-24-66.8-17.4c-29.2-5.2-60,2.2-84.4,18.8c-17.2,11.8-24.4,30-27,49.4
		c-1.2,3.6-2.2,7.2-3.2,11.2c-6.2,29.2-1,58.2,23.2,77.6c21.6,17.4,48.4,28.4,75.8,32.6c26.4,4,57.4,3.6,78.2-15.6
		c20.6-19,26.4-50.2,26.4-77C306.5,210.1,301.1,177.9,283.7,156.9z"/>
	<g id="eyes">
		<path class="st4" d="M185.1,205.3c-2-3-8-3.4-11.8-3.8c-15.6-1.2-30.2,11.4-31.6,27c-1.4,17.2,20.8,28,36.4,19.2
			c17.6-10,14.2-15,14-20.8C191.9,218.3,192.7,209.9,185.1,205.3z"/>
		<g>
			<path class="st5" d="M185.1,234.1c-0.6-3.6-3.8-9.6-7.2-10.8c-2-0.6-5.4-1.2-7.2,0c0,0-3.6,0-7.2,3.6c-3.6,7.2-0.8,13,5.2,16.6
				C175.3,247.3,186.5,241.7,185.1,234.1z"/>
			<path class="st5" d="M173.9,236.3c0,0,0.2-0.2,0.4-0.2C174.1,236.1,173.9,236.3,173.9,236.3L173.9,236.3z"/>
		</g>
		<path class="st5" d="M157.9,212.7c-0.6-1-1.4-1.6-2.6-2c-3.2-0.6-6.2,2.6-5.4,5.8c0.8,3,4.6,3.8,7,2.6
			C159.5,217.7,159.5,214.7,157.9,212.7z"/>
		<path class="st4" d="M264.3,201.7c-2-3-8-3.4-11.8-3.8c-15.6-1.2-30.2,11.4-31.6,27c-1.4,17.2,20.8,28,36.4,19.2
			c17.6-10,14.2-15,14-20.8C271.1,214.7,271.9,206.3,264.3,201.7z"/>
		<path class="st5" d="M264.3,230.5c-0.6-3.6-3.8-9.6-7.2-10.8c-2-0.6-5.4-1.2-7.2,0c0,0-3.6,0-7.2,3.6c-3.6,7.2-0.8,13,5.2,16.6
			C254.5,243.7,265.7,237.9,264.3,230.5z"/>
		<path class="st5" d="M237.1,209.1c-0.6-1-1.4-1.6-2.6-2c-3.2-0.6-6.2,2.6-5.4,5.8c0.8,3,4.6,3.8,7,2.6
			C238.7,214.1,238.9,211.1,237.1,209.1z"/>
	</g>
	<g id="frekkles">
	</g>
	<path class="st6" d="M281.9,253.9c-6.4,1.6-14,3.8-21.4,4.4c6-3.2,12.6-5.2,19.4-5.8c4.6-0.4,4.6-7.6,0-7.2
		c-12.6,1-23.6,5.6-33.2,13.8c-2,1.6-1,5.6,1.6,6c4.4,0.8,9.2,0.6,14,0c-0.6,0.4-1.4,1-2,1.4c-3,2.4,0.4,6.6,3.6,6
		c2.6-0.6,5.4-1,8-1.4c-1.8,3,1.4,7.6,4.6,5c3.2-2.4,5.8-5,8-8.4c1.4-2-0.4-5.8-3-5.4c-0.6,0-1.2,0.2-1.6,0.2
		c1.6-0.8,3.2-1.6,4.8-2.4C288.3,258.7,285.7,252.9,281.9,253.9z"/>
	<path class="st6" d="M124.3,257.5c6.4,1.6,14,3.8,21.4,4.4c-6-3.2-12.6-5.2-19.4-5.8c-4.6-0.4-4.6-7.6,0-7.2
		c12.6,1,23.6,5.6,33.2,13.8c2,1.6,1,5.6-1.6,6c-4.4,0.8-9.2,0.6-14,0c0.6,0.4,1.4,1,2,1.4c3,2.4-0.4,6.6-3.6,6
		c-2.6-0.6-5.4-1-8-1.4c1.8,3-1.4,7.6-4.6,5c-3.2-2.4-5.8-5-8-8.4c-1.4-2,0.4-5.8,3-5.4c0.6,0,1.2,0.2,1.6,0.2
		c-1.6-0.8-3.2-1.6-4.8-2.4C117.7,262.3,120.5,256.5,124.3,257.5z"/>
	<g id="Layer_5">
	</g>
</g>
<g id="hat">
	<path class="st7" d="M312.5,203.8c-6.4-37.1-42.1-56.6-74.3-68.2c-17.9-6.5-37-11.2-56.2-8.4c-8.6,1.2-19.2,3.5-24.3,11.3
		c-2.8,4.3-3.1,10.1-1.1,14.8c0,0.7,0.2,1.5,0.4,2.2c1.4,4.9,7.7,9.5,12.9,7.3c23.8-10,51.1,0.4,74,8.7
		c20.2,7.3,36.3,22.3,42.8,43.1c3.2,10.1,16.4,8.9,19.9,1.6C311.5,214.1,313.4,208.9,312.5,203.8z"/>
	<path class="st8" d="M312.7,147c-2.6-7.1-6.8-13.5-10.8-19.9c-4.2-6.9-8.2-14.2-13.3-20.5c-9.9-12.4-24.8-14.8-39.7-16.9
		c-15.8-2.2-30.5-1.3-45.2,5.1c-15.1,6.5-28.2,17-40.1,28.2c-5.4,5.1-0.3,12.6,5.5,12.7c2,0.4,4.1,0.2,6-0.2
		c0.6-0.1,1.2-0.3,1.8-0.4c0.1,0,1.1-0.2,1.4-0.3c0.1,0,0.1,0,0.2,0c0.4,0,0.8-0.1,1.2-0.1c0.2,0,0.4,0,0.6,0
		c24.3-1.8,48.5,5.1,71.5,12.1c11.3,3.4,20.1,8.8,29,16.5c6.5,5.6,13.2,11.5,15.6,19.9c0,2.3,0.1,4.7,0.4,7
		c0.8,5.9,3.7,13.7,11.4,11.2c3.5-1.1,5.1-3.8,5.5-7.2c0.1-1.1-0.5-3.9-0.5-3.8c0.1-1.8,0.8-3.5,0.8-5.3c0-0.9-0.1-1.9-0.3-2.8
		c1.3-3.6,1.5-7.6,1.5-11.6C315.6,162.6,315.4,154.4,312.7,147z"/>
	<path class="st7" d="M284.4,69c-3-3.1-7.2-4-11.3-4.4c-4.2-0.5-8.9-1.5-13.1-0.4c-1.6,0.4-2.9,1.1-4.2,2.1
		c-4.3,0.7-8.3,2.6-11.5,5.9c-6,6-7,16-1.8,22.9c5.2,6.9,15,8.2,23.1,8.2c7.8-0.1,16.2-2.5,20.3-9.7C289.9,86.6,290.2,75,284.4,69z"
		/>
</g>
<g id="echarpe">
	<path class="st9" d="M307,285.5c0.3-5.2-6.8-9.9-11.3-6.5c-16.9,13-36.5,19.1-56.9,21.6c-12.7,0.4-25.5-0.3-38.1-0.9
		c-24.1-1-47.4-3.3-70.5-9.7c-8.7-5.2-16.1-13-17.3-23.2c-0.1-0.8-0.3-1.6-0.5-2.3c0-1.3-0.2-2.7-0.6-4.2c-1.2-4.6-7-7-11-4.5
		c-3.9,2.5-4.8,5.6-7.1,9.2c-1.5,2.4-4.3,4.3-7.2,3.8c-5.7-0.9-10.5,3.2-9.2,9.2c0.3,1.6,0.8,3.2,1.4,4.6c-1.8,1.7-2.7,4.1-1.6,7
		c5.6,14.8,18.2,23.7,32.1,30.4c1,0.5,2,0.9,3,1.4c1.2,0.9,2.4,1.8,3.6,2.7c12.3,9.1,25.6,15.9,40.7,18.5c25,4.3,50.7,4.2,75.7,0.2
		c17.4-1.4,36.5-2.3,52.1-10.4c4-2.1,8.8-5,11.1-9c1.4-2.5,2-5.5,1.4-8.3c-0.4-2-1.7-3.6-2.3-5.5c-1.1-3.7,3.4-7.4,5.7-9.9
		C304.1,295.6,306.7,291.3,307,285.5z"/>
	<path class="st10" d="M291.1,312.6c2.2-3,1.9-7.7-0.8-10.3c0.5-2,0.2-4.1-0.7-5.8c-2.2-3.8-6.6-4.3-10.3-2.7
		c-29.4,13.2-62.2,15.9-94,13.1c-15.9-1.4-32.3-3.6-47.5-8.4c-6.5-2.1-14.1-4.9-18.4-10.6c-4.3-5.7-4.9-12.1-11.6-16.1
		c-5-3-9.6,0.5-10.9,4.8c-0.5,0-1,0.1-1.5,0.2c-3.5,0.7-5.5,3.4-6.1,6.5c-3.9,1.8-5,6.8-3.3,10.4c0,2,0.8,4,2.2,5.4
		c0.3,1.1,1,2.3,2.2,3.3c11.7,10,24.6,18,38.9,23.6c1.9,0.7,3.8,1.4,5.7,1.9c1.4,1.6,3,3,4.8,4.3c1.5,1.1,4,1.2,5.8,0.8
		c0,0,0,0,0.1,0c10.1,3.3,20.2,5.6,30.9,6.1c11.3,0.5,22.7,0.2,34,0.3c15.1,0,32.1,1.6,46.8-3.1c6.6,0.2,13.6-1.8,20-3.2
		c4.7-1.1,8.7-3.5,10.9-7.5C293.9,323.8,294.8,316.2,291.1,312.6z"/>
	<path class="st9" d="M200.9,301.4c0.4-4-3.7-7.5-7.5-7.5c-1.7,0-3.2,0.5-4.3,1.4c-2.3-3.4-7.1-3.4-10.3-1.1
		c-3.4-3.7-11.1-3.7-13.3,2.6c-0.1,0.2-0.2,0.4-0.3,0.6c-1.3-4.2-6-7.6-11-5c-4.3,2.2-6.8,6.4-7.6,11.1c-0.9,5.4,2,10.4,1.5,15.7
		c-0.5,4.6-3.4,9.6-5,13.8c-2.1,5.5-4.8,11.1-5.8,17c-0.6,4,1,8,5.2,9.2c1.9,0.6,4.3,0.1,6.2-1c2.9,4.2,9.6,5.7,12.3-0.2
		c0.1-0.2,0.2-0.4,0.3-0.7c3.3,4,10.3,4.5,12.5-0.8c2.6,4.2,9,5.6,12.6,0.1c2.8-4.4,5.1-9.3,6.2-14.5c0.5-2.2,0.5-4.8,1.5-6.8
		c0.9-1.8,2.6-3.5,2.9-5.4c0.8-5.3,4-7.3,4-12C200.9,312.3,200.3,307.1,200.9,301.4z M170.2,317.9c0.3-1.7,0.9-3.4,2.2-5.1
		c0.1-0.2,0.3-0.4,0.4-0.6c0,0.1-0.1,0.1-0.1,0.2C171.8,314.3,171,316.1,170.2,317.9z"/>
	<path class="st10" d="M194.7,301.8c-0.8-1-2-1.6-3.7-1.6c-1.2,0-2.2,0.3-2.9,0.9c-2.3-1.4-5.5-1.2-6.9,1.4
		c-0.9-0.4-1.9-0.6-2.9-0.5c-1.9-3.1-7-3.9-8.6-0.3c-1.6-1.4-4.1-2.1-5.9-0.7c-0.7,0.5-1.3,1-1.9,1.6c-1.7-4-8.4-4.9-9.3,0.3
		c-1.2,6.6,1.7,12.6,0.6,19.2c-1.1,6.9-3,13.6-5.4,20.1c-0.6,1.8-0.3,3.2,0.6,4.3c-0.8,2.9,0.8,6.5,4.6,6.5c1.7,0,2.9-0.7,3.7-1.7
		c0.8,0.7,1.8,1.1,3.2,1.1c1.4,0,2.6-0.5,3.3-1.3c2.4,2.4,6.9,2.5,8-1.2c0.8,0.8,1.9,1.4,3.4,1.4c1.5,0,2.7-0.6,3.5-1.4
		c0.8,1.1,2.1,1.9,3.9,1.9c3.9,0,5.4-3.7,4.6-6.5c3.4-5.3,5.1-11.5,7.1-17.4c2.4-6.7,4.7-13.5,7.1-20.2
		C202.4,303.4,198.1,300.9,194.7,301.8z"/>
	<path class="st9" d="M196.1,293.1c-0.4,0-0.8,0-1.1,0.1c-0.3-0.1-0.7-0.1-1.1-0.1c-0.9,0-1.6,0.2-2.2,0.5c-0.8-0.8-1.9-1.3-3.3-1.3
		c-1.3,0-2.3,0.4-3.1,1c-0.8-0.6-1.8-1-3.1-1c-0.9,0-1.7,0.2-2.4,0.6c-0.8-0.6-1.7-1-3-1c-0.8,0-1.6,0.2-2.2,0.5
		c-0.8-0.8-1.9-1.3-3.3-1.3c-0.4,0-0.9,0.1-1.2,0.1c0,0-0.1,0-0.1,0c-0.9,0-1.7,0.2-2.3,0.6c-0.7-0.4-1.6-0.7-2.6-0.7
		c-1.1,0-1.9,0.3-2.7,0.7c-0.5-0.3-1.2-0.5-1.9-0.6c-0.6-0.2-1.2-0.4-2-0.4c-6.3,0-6.4,9.5-0.5,10c0.6,0.2,1.2,0.4,1.9,0.4
		c0.9,0,1.6-0.2,2.2-0.5c0.8,0.6,1.8,1,3.1,1c1.2,0,2.1-0.3,2.9-0.9c0.6,0.2,1.2,0.3,1.9,0.3c0.4,0,0.8-0.1,1.2-0.1
		c0.1,0,0.1,0,0.2,0c0.8,0,1.4-0.1,2-0.4c0.8,1.2,2.1,2.1,4,2.1c1.2,0,2.1-0.3,2.9-0.9c0.6,0.2,1.2,0.4,2,0.4c0.1,0,0.3,0,0.4,0
		c0.8,1,2,1.6,3.7,1.6c1.8,0,3.1-0.8,3.9-1.9c0.8,1,2,1.7,3.7,1.7c1,0,1.8-0.2,2.4-0.6C202.5,302.8,202.4,293.1,196.1,293.1z"/>
	<path class="st10" d="M194.5,299c-2.2,0-3.7,1.2-4.4,2.8c-0.6-1.8-2.1-3.2-4.5-3.2c-2.1,0-3.5,1.1-4.2,2.5c-0.5-2-2-3.7-4.7-3.7
		c-2.6,0-4.1,1.6-4.6,3.6c-0.5-1.9-2-3.6-4.6-3.6c-2.5,0-4,1.5-4.6,3.3c-0.6-1.7-2.1-3.1-4.5-3.1c-6.4,0-6.4,10,0,10
		c2.5,0,4-1.5,4.6-3.3c0.6,1.7,2.1,3.1,4.5,3.1c2.6,0,4.1-1.6,4.6-3.6c0.5,1.9,2,3.6,4.6,3.6c2.1,0,3.5-1.1,4.2-2.5
		c0.5,2,2,3.7,4.7,3.7c2.2,0,3.7-1.2,4.4-2.8c0.6,1.8,2.1,3.2,4.5,3.2C200.9,309,200.9,299,194.5,299z"/>
	<path class="st9" d="M196.1,298.6c-3.3,16-8.4,31.5-15.4,46.3c-2.7,5.8,5.9,10.9,8.6,5c7.4-15.6,12.9-31.8,16.4-48.7
		C207.1,294.9,197.4,292.2,196.1,298.6z"/>
	<path class="st10" d="M200.3,303.1c-0.4-2.1-1.7-3.1-3.3-3.5c-0.7-0.4-1.4-0.6-2.4-0.6c-4.4,0-5.8,4.6-4.2,7.5
		c-0.4,1-1.2,2.4-1.5,3.1c-1,2.4-1.9,4.9-2.7,7.4c-1.5,4.7-2.5,9.6-3.9,14.3c-0.6,2.1-1.1,4.6-2.2,6.5c-0.8,1.5-2.3,2.6-3.2,4.1
		c-1.8,3.4-0.5,7.3,2.7,9.1c4.2,2.4,8.1-1.9,7.4-5.5c0.6-0.4,1.4-2.1,1.7-2.7c0.9-1.7,1.5-3.7,2.2-5.6c1.3-3.9,2.3-7.8,3.3-11.8
		c1-3.9,2.1-7.9,3.6-11.6C199.5,310.1,201.2,307.3,200.3,303.1z"/>
</g>
</svg>
